<?xml version="1.0" standalone="no"?>
<!DOCTYPE svg PUBLIC "-//W3C//DTD SVG 1.1//EN" "http://www.w3.org/Graphics/SVG/1.1/DTD/svg11.dtd" >
<svg>
<metadata>
Created by FontForge 20120731 at Mon Dec 30 05:52:27 2019
 By www
I1995 P22 type foundry.  All rights reserved.
</metadata>
<defs>
<font id="Constructivist-Solid" horiz-adv-x="400" >
  <font-face 
    font-family="Constructivist"
    font-weight="500"
    font-stretch="normal"
    units-per-em="1000"
    panose-1="0 0 0 0 0 0 0 0 0 0"
    ascent="800"
    descent="-200"
    x-height="752"
    cap-height="800"
    bbox="4 -185 1014 905"
    underline-thickness="20"
    underline-position="-123"
    stemh="229"
    stemv="227"
    unicode-range="U+0020-F8FF"
  />
<missing-glyph horiz-adv-x="1000" 
 />
    <glyph glyph-name=".notdef" horiz-adv-x="1000" 
 />
    <glyph glyph-name="space" unicode=" " 
 />
    <glyph glyph-name="exclam" unicode="!" horiz-adv-x="345" 
d="M284 112c0 -61 -50 -111 -111 -111s-109 50 -109 111c0 60 48 109 109 109s111 -49 111 -109zM286 253h-227v548h227v-548z" />
    <glyph glyph-name="quotedbl" unicode="&#x22;" horiz-adv-x="618" 
d="M561 459h-116v114h-110v228h226v-228v-114zM282 459h-115v114h-110v228h225v-228v-114z" />
    <glyph glyph-name="numbersign" unicode="#" horiz-adv-x="930" 
d="M768 334h96v-269h-86v-65h-269v75h-96v-75h-269v65h-80v269h90v96h-90v269h80v101h269v-111h96v110h269v-100h88v-269h-98v-96z" />
    <glyph glyph-name="dollar" unicode="$" horiz-adv-x="829" 
d="M778 211l-152 -152l-44 44c-58 -62 -142 -101 -235 -101c-92 0 -174 38 -234 100l143 142c-62 59 -99 142 -99 234c0 13 0 26 2 40l-108 107l153 153l59 -60c58 52 134 84 218 84c92 0 175 -39 234 -100l-142 -143c60 -59 99 -141 99 -233v-7z" />
    <glyph glyph-name="percent" unicode="%" horiz-adv-x="915" 
d="M856 798l-543 -795h-257l542 795h258zM859 171c0 -95 -78 -173 -174 -173c-95 0 -173 78 -173 173c0 96 78 173 173 173c96 0 174 -77 174 -173zM403 625c0 -96 -78 -173 -173 -173c-96 0 -174 77 -174 173c0 95 78 173 174 173c95 0 173 -78 173 -173z" />
    <glyph glyph-name="ampersand" unicode="&#x26;" horiz-adv-x="801" 
d="M428 640c0 -89 -73 -161 -161 -161c-89 0 -162 72 -162 161s73 161 162 161c88 0 161 -72 161 -161zM340 470l-3 3l168 167l167 -167l-132 -133h206v-236h-236v28c-38 -80 -120 -136 -215 -136c-132 0 -239 108 -239 239c0 132 107 239 239 239c15 0 31 -1 45 -4z" />
    <glyph glyph-name="parenleft" unicode="(" horiz-adv-x="362" 
d="M306 -95c-151 114 -250 296 -250 500s99 386 250 500v-1000z" />
    <glyph glyph-name="parenright" unicode=")" horiz-adv-x="354" 
d="M302 395c0 -204 -99 -386 -250 -500v1000c151 -114 250 -296 250 -500z" />
    <glyph glyph-name="asterisk" unicode="*" horiz-adv-x="644" 
d="M574 614l-164 -113l66 -188l-158 121l-159 -121l66 188l-164 113l199 -4l58 190l56 -190z" />
    <glyph glyph-name="plus" unicode="+" horiz-adv-x="926" 
d="M863 266h-263v-265h-270v265h-267v268h267v267h270v-267h263v-268z" />
    <glyph glyph-name="comma" unicode="," horiz-adv-x="337" 
d="M281 -116h-115v114h-110v228h225v-228v-114z" />
    <glyph glyph-name="hyphen" unicode="-" horiz-adv-x="464" 
d="M401 284h-337v228h337v-228z" />
    <glyph glyph-name="period" unicode="." horiz-adv-x="327" 
d="M276 -2h-226v226h226v-226z" />
    <glyph glyph-name="slash" unicode="/" horiz-adv-x="926" 
d="M863 798l-543 -795h-257l542 795h258z" />
    <glyph glyph-name="zero" unicode="0" horiz-adv-x="892" 
d="M91 575c98 196 337 276 533 177c195 -98 275 -337 177 -532c-97 -196 -337 -276 -533 -178s-275 337 -177 533z" />
    <glyph glyph-name="one" unicode="1" horiz-adv-x="462" 
d="M402 0h-343v800h343v-800z" />
    <glyph glyph-name="two" unicode="2" horiz-adv-x="790" 
d="M605 310h130v-310h-681v310h2l405 146h-367v345h371v-3c150 -2 270 -125 270 -276c0 -98 -52 -172 -130 -212z" />
    <glyph glyph-name="three" unicode="3" horiz-adv-x="786" 
d="M735 206c0 -155 -128 -206 -267 -206h-417v229h167c140 0 139 69 116 105c-32 32 -67 48 -148 61c-12 2 -12 8 0 10c81 13 116 29 148 61c23 36 23 105 -116 105h-167v229h417c139 0 267 -51 267 -206c0 -112 -79 -168 -144 -194c65 -26 144 -82 144 -194z" />
    <glyph glyph-name="four" unicode="4" horiz-adv-x="811" 
d="M746 0h-226v226h-455v227l431 346h250v-799z" />
    <glyph glyph-name="five" unicode="5" horiz-adv-x="811" 
d="M274 450h-210v349h688v-230h-323v-34c184 -9 328 -125 328 -267c0 -149 -157 -269 -352 -269c-194 0 -352 120 -352 269c0 6 0 16 1 23h220v159z" />
    <glyph glyph-name="six" unicode="6" horiz-adv-x="809" 
d="M748 342c0 -190 -154 -343 -344 -343s-343 153 -343 343v457h226v-134c37 14 76 21 117 21c190 0 344 -154 344 -344z" />
    <glyph glyph-name="seven" unicode="7" horiz-adv-x="679" 
d="M625 0h-226v571h-346v228h572v-799z" />
    <glyph glyph-name="eight" unicode="8" horiz-adv-x="712" 
d="M193 459c-6 5 -12 10 -17 15c-85 82 -78 205 21 277c98 72 246 65 332 -17c85 -80 78 -205 -14 -278c3 -1 6 2 8 1c138 -77 174 -232 82 -346c-93 -115 -279 -145 -416 -68c-138 77 -174 232 -81 346c23 29 53 52 85 70z" />
    <glyph glyph-name="nine" unicode="9" horiz-adv-x="803" 
d="M745 2h-226v134c-37 -14 -76 -21 -118 -21c-189 0 -343 153 -343 344c0 189 154 343 343 343c191 0 344 -154 344 -343v-457z" />
    <glyph glyph-name="colon" unicode=":" horiz-adv-x="342" 
d="M284 488h-226v226h226v-226zM284 163h-226v226h226v-226z" />
    <glyph glyph-name="semicolon" unicode=";" horiz-adv-x="339" 
d="M279 49h-115v114h-110v228h225v-228v-114zM284 488h-226v226h226v-226z" />
    <glyph glyph-name="less" unicode="&#x3c;" 
 />
    <glyph glyph-name="equal" unicode="=" horiz-adv-x="930" 
d="M865 65h-800v269h800v-269zM865 430h-800v269h800v-269z" />
    <glyph glyph-name="greater" unicode="&#x3e;" 
 />
    <glyph glyph-name="question" unicode="?" 
 />
    <glyph glyph-name="at" unicode="@" horiz-adv-x="922" 
d="M753 458c-33 132 -137 235 -279 239c-284 9 -422 -320 -253 -521c76 -89 207 -83 313 -75l3 -98c-198 -14 -450 31 -478 277c-32 294 95 526 419 518c449 -11 492 -638 222 -612c-63 6 -102 44 -151 70h-294l202 334l149 -250c39 -21 78 -67 117 -56c59 17 36 150 30 174
z" />
    <glyph glyph-name="A" unicode="A" horiz-adv-x="1047" 
d="M983 0h-919l461 800z" />
    <glyph glyph-name="B" unicode="B" horiz-adv-x="803" 
d="M702 356c95 -106 61 -355 -155 -355h-496v800h449c56 0 107 -20 139 -57c77 -89 60 -287 -86 -327c62 -1 114 -23 149 -61z" />
    <glyph glyph-name="C" unicode="C" horiz-adv-x="771" 
d="M728 679l-285 -285l281 -281c-72 -71 -171 -115 -280 -115c-221 0 -400 179 -400 400c0 220 179 400 400 400c111 0 211 -46 284 -119z" />
    <glyph glyph-name="D" unicode="D" horiz-adv-x="911" 
d="M852 412c0 -84 -23 -163 -68 -231c-77 -119 -211 -181 -403 -181h-322v800h324c152 0 271 -39 356 -117c78 -71 113 -161 113 -271z" />
    <glyph glyph-name="E" unicode="E" horiz-adv-x="794" 
d="M740 0h-685v800h685v-229h-456v-114h229v-230h227v-227z" />
    <glyph glyph-name="F" unicode="F" horiz-adv-x="786" 
d="M735 572h-227v-228h-229v-343h-229v800h685v-229z" />
    <glyph glyph-name="G" unicode="G" horiz-adv-x="901" 
d="M851 400c0 -221 -179 -400 -400 -400s-400 179 -400 400s179 400 400 400h1v-400h399v0z" />
    <glyph glyph-name="H" unicode="H" horiz-adv-x="794" 
d="M739 0h-227v227h-228v-227h-230v800h230v-229h228v229h227v-800z" />
    <glyph glyph-name="I" unicode="I" horiz-adv-x="462" 
d="M402 0h-343v800h343v-800z" />
    <glyph glyph-name="J" unicode="J" horiz-adv-x="800" 
d="M744 345c0 -9 -1 -19 -2 -28v-13h-1c-21 -171 -165 -303 -342 -303c-190 0 -344 155 -344 344h343v456h344v-456h2z" />
    <glyph glyph-name="K" unicode="K" horiz-adv-x="925" 
d="M862 0h-799s5 800 0 800c-4 0 799 0 799 0l-402 -400z" />
    <glyph glyph-name="L" unicode="L" horiz-adv-x="793" 
d="M739 1h-685v800h342v-568h343v-232z" />
    <glyph glyph-name="M" unicode="M" horiz-adv-x="918" 
d="M859 801v-799h-800c0 -4 0 799 0 799l400 -402z" />
    <glyph glyph-name="N" unicode="N" horiz-adv-x="800" 
d="M743 0h-340h-346v800l346 -404v404h340v-800z" />
    <glyph glyph-name="O" unicode="O" horiz-adv-x="892" 
d="M91 575c98 196 337 276 533 177c195 -98 275 -337 177 -532c-97 -196 -337 -276 -533 -178s-275 337 -177 533z" />
    <glyph glyph-name="P" unicode="P" horiz-adv-x="806" 
d="M703 719c96 -140 61 -473 -155 -473h-153v-246h-342v800h496c63 0 118 -29 154 -81z" />
    <glyph glyph-name="Q" unicode="Q" horiz-adv-x="951" 
d="M904 97l-151 -151l-112 112c-58 -33 -125 -52 -198 -52c-218 0 -396 176 -396 395c0 218 177 395 395 395c219 0 397 -177 397 -395c0 -69 -17 -134 -50 -190z" />
    <glyph glyph-name="R" unicode="R" horiz-adv-x="796" 
d="M737 1h-236h-449v799l496 1c217 0 233 -293 148 -408c-53 -72 -91 -97 -149 -105z" />
    <glyph glyph-name="S" unicode="S" horiz-adv-x="711" 
d="M656 700l-143 -142c62 -60 100 -142 100 -234c0 -179 -145 -324 -324 -324c-92 0 -176 38 -234 100l142 142c-61 60 -99 142 -99 234c0 179 145 324 324 324c92 0 175 -38 234 -100z" />
    <glyph glyph-name="T" unicode="T" horiz-adv-x="815" 
d="M749 571h-170v-570h-342v570h-172v230h684v-230z" />
    <glyph glyph-name="U" unicode="U" horiz-adv-x="826" 
d="M760 409c0 -133 -32 -236 -101 -310c-61 -67 -140 -98 -235 -98c-73 0 -142 20 -200 58c-104 68 -159 184 -159 351v391h695v-392z" />
    <glyph glyph-name="V" unicode="V" horiz-adv-x="1063" 
d="M1012 799l-483 -800l-479 800h962z" />
    <glyph glyph-name="W" unicode="W" horiz-adv-x="999" 
d="M954 799l-224 -800l-232 800h456zM501 799l-224 -800l-232 800h456z" />
    <glyph glyph-name="X" unicode="X" horiz-adv-x="931" 
d="M867 0h-804l275 403l-275 397h804l-275 -397z" />
    <glyph glyph-name="Y" unicode="Y" horiz-adv-x="795" 
d="M740 801l-231 -384v-416h-229v422l-226 378h686z" />
    <glyph glyph-name="Z" unicode="Z" horiz-adv-x="926" 
d="M865 0h-804l325 568h-325v232h804l-261 -459h261v-341z" />
    <glyph glyph-name="bracketleft" unicode="[" 
 />
    <glyph glyph-name="asciicircum" unicode="^" horiz-adv-x="757" 
d="M59 398l-1 180l320 182l321 -182v-180l-320 180z" />
    <glyph glyph-name="a" unicode="a" horiz-adv-x="1047" 
d="M983 0h-919l461 800z" />
    <glyph glyph-name="b" unicode="b" horiz-adv-x="803" 
d="M702 356c95 -106 61 -355 -155 -355h-496v800h449c56 0 107 -20 139 -57c77 -89 60 -287 -86 -327c62 -1 114 -23 149 -61z" />
    <glyph glyph-name="c" unicode="c" horiz-adv-x="771" 
d="M728 679l-285 -285l281 -281c-72 -71 -171 -115 -280 -115c-221 0 -400 179 -400 400c0 220 179 400 400 400c111 0 211 -46 284 -119z" />
    <glyph glyph-name="d" unicode="d" horiz-adv-x="911" 
d="M852 412c0 -84 -23 -163 -68 -231c-77 -119 -211 -181 -403 -181h-322v800h324c152 0 271 -39 356 -117c78 -71 113 -161 113 -271z" />
    <glyph glyph-name="e" unicode="e" horiz-adv-x="794" 
d="M740 0h-685v800h685v-229h-456v-114h229v-230h227v-227z" />
    <glyph glyph-name="f" unicode="f" horiz-adv-x="786" 
d="M735 572h-227v-228h-229v-343h-229v800h685v-229z" />
    <glyph glyph-name="g" unicode="g" horiz-adv-x="901" 
d="M851 400c0 -221 -179 -400 -400 -400s-400 179 -400 400s179 400 400 400h1v-400h399v0z" />
    <glyph glyph-name="h" unicode="h" horiz-adv-x="794" 
d="M739 0h-227v227h-228v-227h-230v800h230v-229h228v229h227v-800z" />
    <glyph glyph-name="i" unicode="i" horiz-adv-x="462" 
d="M402 0h-343v800h343v-800z" />
    <glyph glyph-name="j" unicode="j" horiz-adv-x="800" 
d="M744 345c0 -9 -1 -19 -2 -28v-13h-1c-21 -171 -165 -303 -342 -303c-190 0 -344 155 -344 344h343v456h344v-456h2z" />
    <glyph glyph-name="k" unicode="k" horiz-adv-x="925" 
d="M862 0h-799s5 800 0 800c-4 0 799 0 799 0l-402 -400z" />
    <glyph glyph-name="l" unicode="l" horiz-adv-x="793" 
d="M739 1h-685v800h342v-568h343v-232z" />
    <glyph glyph-name="m" unicode="m" horiz-adv-x="918" 
d="M859 801v-799h-800c0 -4 0 799 0 799l400 -402z" />
    <glyph glyph-name="n" unicode="n" horiz-adv-x="800" 
d="M743 0h-340h-346v800l346 -404v404h340v-800z" />
    <glyph glyph-name="o" unicode="o" horiz-adv-x="892" 
d="M91 575c98 196 337 276 533 177c195 -98 275 -337 177 -532c-97 -196 -337 -276 -533 -178s-275 337 -177 533z" />
    <glyph glyph-name="p" unicode="p" horiz-adv-x="806" 
d="M703 719c96 -140 61 -473 -155 -473h-153v-246h-342v800h496c63 0 118 -29 154 -81z" />
    <glyph glyph-name="q" unicode="q" horiz-adv-x="909" 
d="M882 97l-151 -151l-112 112c-58 -33 -125 -52 -198 -52c-218 0 -395 176 -395 395c0 218 177 395 395 395c219 0 396 -177 396 -395c0 -69 -17 -134 -49 -190z" />
    <glyph glyph-name="r" unicode="r" horiz-adv-x="796" 
d="M737 1h-236h-449v799l496 1c217 0 233 -293 148 -408c-53 -72 -91 -97 -149 -105z" />
    <glyph glyph-name="s" unicode="s" horiz-adv-x="703" 
d="M652 700l-143 -142c62 -60 100 -142 100 -234c0 -179 -145 -324 -324 -324c-92 0 -176 38 -234 100l142 142c-61 60 -99 142 -99 234c0 179 145 324 324 324c92 0 175 -38 234 -100z" />
    <glyph glyph-name="t" unicode="t" horiz-adv-x="815" 
d="M749 571h-170v-570h-342v570h-172v230h684v-230z" />
    <glyph glyph-name="u" unicode="u" horiz-adv-x="826" 
d="M760 409c0 -133 -32 -236 -101 -310c-61 -67 -140 -98 -235 -98c-73 0 -142 20 -200 58c-103 68 -159 184 -159 351v391h695v-392z" />
    <glyph glyph-name="v" unicode="v" horiz-adv-x="1063" 
d="M1012 799l-483 -800l-479 800h962z" />
    <glyph glyph-name="w" unicode="w" horiz-adv-x="999" 
d="M954 799l-224 -800l-232 800h456zM501 799l-224 -800l-232 800h456z" />
    <glyph glyph-name="x" unicode="x" horiz-adv-x="931" 
d="M867 0h-804l275 403l-275 397h804l-275 -397z" />
    <glyph glyph-name="y" unicode="y" horiz-adv-x="795" 
d="M740 801l-231 -384v-416h-229v422l-226 378h686z" />
    <glyph glyph-name="z" unicode="z" horiz-adv-x="926" 
d="M865 0h-804l325 568h-325v232h804l-261 -459h261v-341z" />
    <glyph glyph-name="quotesingle" unicode="'" horiz-adv-x="338" 
d="M282 459h-116v114h-110v228h226v-228v-114z" />
    <glyph glyph-name="oslash" unicode="&#xf8;" horiz-adv-x="779" 
d="M732 400c0 -149 -95 -275 -226 -323v-77h-229v76c-134 46 -230 173 -230 324c0 149 96 277 230 323v77h229v-79c131 -48 226 -173 226 -321z" />
    <glyph glyph-name="atilde" unicode="&#xe3;" 
 />
    <glyph glyph-name="registered" unicode="&#xae;" horiz-adv-x="798" 
d="M745 1h-449h-236l190 287c-58 8 -96 33 -149 105c-85 115 -69 408 148 408l496 -1v-799z" />
    <glyph glyph-name="summation" unicode="&#x2211;" horiz-adv-x="918" 
d="M59 1v799s800 -5 800 0c0 4 0 -799 0 -799l-400 402z" />
    <glyph glyph-name="logicalnot" unicode="&#xac;" horiz-adv-x="931" 
d="M789 606c157 -223 40 -523 -181 -599c-246 -85 -454 68 -519 246c-44 122 -10 260 46 351c63 102 187 184 354 179c140 -4 239 -90 300 -177zM701 358c-3 16 -50 49 -53 72c-1 14 21 25 29 30c-39 22 -29 82 -49 124c-25 54 -127 111 -214 99
c-137 -18 -279 -152 -235 -320c13 -49 51 -78 60 -124c8 -40 19 -79 29 -117c2 -12 -2 -26 4 -37c2 -5 85 -46 99 -44c21 1 99 11 120 19c26 10 37 66 64 74c43 12 91 -14 131 -10c23 80 -26 82 -32 118c-4 24 32 37 44 46c-7 14 -14 18 -21 31c-11 -7 25 36 24 39zM619 405
c-38 5 -41 -10 -55 26c-24 -6 -36 -9 -62 -15c-5 -1 -13 -4 -20 -6c0 5 -1 12 -2 20c32 -2 58 14 82 24c5 2 -25 13 -38 11c-18 -4 -57 -11 -20 9c10 4 20 14 34 15c28 3 55 -14 63 -14c8 1 22 -46 18 -70zM641 343c66 4 -9 -51 -44 5c5 6 11 13 15 19c20 -14 6 -26 29 -24z
M652 301c41 2 18 -27 -2 -33c-16 -5 -31 -2 -51 -2c9 -15 26 -17 44 -20c-29 -21 -55 -16 -84 -2c-10 -14 -20 -22 -40 -11c-21 12 11 40 19 15c4 4 9 9 15 14c8 5 13 6 46 16c14 4 29 22 53 23zM559 306c16 -6 -2 -16 -9 -20c0 2 2 12 0 13c3 2 8 4 9 7zM636 190
c-2 1 -4 7 -2 18c27 -13 6 -21 2 -18zM657 140c-36 0 -75 18 -107 11c-25 -6 -61 -105 -110 -62c-11 10 -37 49 -40 64c-1 11 5 17 0 27c-13 31 -55 37 -73 66c-5 -3 -10 -4 -13 -4c5 -23 16 -60 31 -73c18 -15 56 -65 60 -89c3 -18 -18 -11 -18 -11c-13 9 -17 13 -25 27
c-4 8 -18 45 -35 39c-4 -1 4 -46 5 -55c-13 3 -35 6 -42 16c-19 28 -26 109 -36 148c-19 78 -87 110 -64 223c6 25 61 52 87 53c10 0 17 -12 26 -14c61 -8 43 -3 24 -48c31 1 60 13 35 -24c-7 -12 -15 -12 -15 -12c-23 16 -34 23 -70 28c0 0 -10 -9 -16 -14
c-62 -54 11 -96 37 -130c4 -4 5 -15 9 -18c19 -15 37 14 54 20c3 -17 6 -40 6 -62c19 -7 38 -10 55 -20c10 -5 6 -18 13 -24s48 -18 58 -16c13 4 13 16 36 18c5 -10 6 -18 4 -33c19 -1 34 -6 55 -7c4 15 4 13 15 20c9 -8 13 -14 16 -29c11 -1 24 -2 35 -4zM316 334
c-8 12 -18 23 -29 32c21 43 7 40 -24 19c-1 17 -1 35 18 37c46 4 45 -63 35 -88z" />
    <glyph glyph-name="nbspace" unicode="&#xa0;" 
 />
    <glyph glyph-name="apple" unicode="&#xf8ff;" horiz-adv-x="1017" 
d="M837 -61v-40c-84 3 -149 18 -197 36c-33 -18 -67 -33 -103 -45c18 -5 36 -11 56 -13c0 0 83 -28 243 -23v-39l177 62h1zM344 331h32v40h18c28 0 43 13 43 42c0 27 -18 40 -44 40h-49v-122zM376 427h5c13 0 23 0 23 -15s-11 -15 -23 -15h-5v30zM504 358l19 17
c12 11 19 22 19 39c0 27 -21 43 -46 43c-29 0 -47 -18 -48 -46h35v5c0 8 4 15 13 15c8 0 14 -8 14 -16c0 -11 -7 -22 -14 -30l-50 -54h98v27h-40zM615 358l18 17c13 12 20 22 20 39c0 27 -21 43 -47 43c-29 0 -46 -18 -47 -46h35c-1 1 -1 3 -1 5c0 8 5 15 13 15
c9 0 14 -8 14 -16c0 -11 -7 -22 -14 -30l-49 -54h97v27h-39zM500 786c53 -52 94 -125 117 -212l-3 -2c-6 4 -12 8 -18 11v19v6l-5 2c-7 3 -15 6 -24 9l-5 1l-3 -4l-12 -15c-7 1 -14 3 -21 3l-7 19l-2 5h-5c-8 1 -16 1 -26 0h-5l-2 -5l-6 -19l-21 -3l-12 15l-4 4l-5 -1
c-8 -3 -15 -6 -24 -9l-5 -3v-5l1 -19c-6 -4 -13 -7 -19 -11l-2 1c22 83 60 154 110 205l-8 8c-209 -8 -380 -180 -380 -392c0 -189 110 -354 275 -447c62 23 95 51 107 63l6 6c-48 51 -85 120 -108 200v0c6 -4 13 -7 19 -10v-20v-5l5 -3c7 -3 14 -5 24 -8l5 -2l3 5l12 15
c7 -2 14 -3 21 -4l7 -19l2 -5h5h25l6 1l2 5l6 18c7 1 14 2 21 4l12 -16l4 -4l5 2c8 2 15 5 24 9l5 2v5l-1 20c6 3 13 7 19 10v0c-24 -88 -67 -163 -121 -214c-17 -16 -104 -94 -313 -102v39l-177 -61h1l177 -62v38c159 -4 243 24 243 24c271 27 470 260 470 516
c0 217 -179 392 -395 392zM614 235l-4 -3c-8 -6 -17 -10 -26 -14l-4 -3v-5v-19c-4 -1 -8 -3 -12 -4l-12 15l-3 4l-5 -2c-9 -2 -19 -4 -29 -5h-5l-2 -5l-6 -18h-13l-6 18l-2 5h-5c-9 1 -20 3 -29 5l-5 2l-3 -4l-12 -15c-4 1 -8 3 -12 4v19v5l-4 3c-9 4 -18 8 -26 14l-4 3
l-5 -2l-16 -10c-3 3 -7 5 -10 8l7 18l2 5l-4 3c-6 7 -13 15 -19 23l-3 4l-5 -1l-18 -4c-3 4 -5 8 -7 12l13 14l3 4l-2 5c-3 8 -7 18 -10 27l-2 5l-5 1l-18 3l-3 12l17 10l5 2l-1 5c-1 10 -1 20 0 30l1 5l-5 3l-17 9l3 12l18 3l5 1l2 5c2 9 6 19 10 28l2 5l-3 4l-13 14
c2 4 4 7 7 11l18 -4l5 -1l3 4c6 8 12 16 19 23l4 4l-2 5l-7 17c4 3 7 6 10 8l16 -9l5 -3l4 3c8 6 16 10 26 15l4 2v5v19c4 2 8 3 12 4l12 -14l3 -4l5 1c9 2 19 4 29 5l5 1l2 5l6 17c4 1 9 1 13 1l6 -19l2 -4l5 -1c9 -2 19 -3 29 -5l5 -1l3 4l12 14c4 -1 8 -2 12 -4v-19v-5
l4 -2c9 -4 18 -9 26 -15l4 -3l5 3l16 10c3 -3 6 -6 10 -9l-7 -17l-2 -5l4 -4c7 -7 13 -15 19 -23l3 -4l5 1l18 4c2 -4 5 -8 7 -11l-13 -15l-3 -3l2 -5c3 -9 7 -18 10 -28l1 -5l6 -1l18 -2c1 -5 2 -9 2 -13l-16 -9l-5 -3l1 -5v-30l-1 -5l5 -2l16 -9c0 -5 -1 -9 -2 -13l-19 -3
l-5 -1l-1 -5c-3 -9 -7 -19 -10 -27l-2 -5l3 -4l13 -14c-2 -4 -5 -8 -7 -11l-18 3l-5 1l-3 -4c-6 -8 -13 -16 -19 -23l-4 -3l2 -5l7 -18c-4 -3 -7 -5 -10 -8l-16 10z" />
    </font>
</defs>
</svg>
